<!DOCTYPE svg PUBLIC "-//W3C//DTD SVG 20010904//EN" "http://www.w3.org/TR/2001/REC-SVG-20010904/DTD/svg10.dtd">
<svg version="1.0" xmlns="http://www.w3.org/2000/svg" width="3000px" height="3000px" viewBox="0 0 12000 12000" preserveAspectRatio="xMidYMid meet">
<g id="layer101" fill="#0b6d22" stroke="none">
<path d="M5805 11309 c-92 -9 -153 -20 -215 -38 -19 -5 -62 -17 -94 -26 -55 -15 -78 -24 -196 -78 -181 -82 -382 -251 -481 -403 -70 -107 -115 -226 -139 -369 -8 -46 -11 -157 -9 -322 l4 -252 -2337 -1403 -2338 -1402 0 -2078 c0 -1656 3 -2078 13 -2078 6 0 39 -14 72 -30 33 -16 64 -30 68 -30 5 0 32 -11 60 -24 29 -13 79 -34 112 -47 33 -13 71 -29 85 -36 14 -7 29 -13 34 -13 5 0 34 -11 65 -24 99 -43 390 -156 400 -156 6 0 27 -7 48 -16 66 -29 77 -33 143 -54 36 -11 74 -25 85 -29 11 -5 52 -20 90 -32 39 -13 75 -26 80 -29 6 -4 33 -13 60 -20 28 -6 79 -23 115 -35 68 -24 186 -62 358 -114 56 -17 146 -44 200 -61 112 -34 225 -65 332 -90 41 -10 98 -25 125 -34 58 -18 266 -69 375 -91 41 -9 93 -20 115 -26 22 -5 83 -18 135 -29 52 -10 118 -23 145 -29 28 -6 102 -21 165 -32 63 -11 135 -25 160 -30 25 -4 106 -18 180 -29 74 -12 160 -25 190 -30 30 -6 127 -19 215 -30 88 -11 194 -25 235 -30 91 -12 334 -33 820 -72 209 -17 1231 -17 1440 0 486 39 730 60 815 71 39 6 144 19 235 30 91 12 190 25 220 31 30 5 116 18 190 30 74 11 155 25 180 29 25 5 99 19 165 31 66 12 138 25 160 30 120 25 254 53 285 61 19 4 69 15 110 24 103 21 401 95 425 105 11 5 49 15 85 23 36 9 81 20 100 26 19 5 69 19 110 29 76 21 134 38 315 94 220 68 293 91 355 112 99 35 336 115 420 143 41 13 83 29 92 34 10 5 25 9 33 9 8 0 15 5 15 10 0 6 7 10 15 10 15 0 179 58 240 85 17 7 46 20 65 28 19 9 49 19 65 23 17 4 35 10 40 14 6 4 35 16 65 28 30 11 80 31 110 45 30 13 77 32 103 42 26 10 50 22 53 26 3 5 12 9 19 9 8 0 44 13 79 30 36 16 77 32 91 36 l25 6 0 2077 0 2077 -2337 1402 -2338 1403 4 247 c5 366 -25 508 -148 696 -133 205 -423 410 -677 481 -32 9 -75 21 -94 27 -122 36 -435 55 -605 37z"/>
</g>
<g id="layer102" fill="#624a34" stroke="none">
<path d="M5805 11309 c-92 -9 -153 -20 -215 -38 -19 -5 -62 -17 -94 -26 -84 -23 -210 -80 -306 -138 -231 -139 -412 -351 -474 -557 -41 -135 -47 -197 -45 -467 l3 -263 -2335 -1400 -2334 -1401 -3 -179 c-3 -206 -12 -195 101 -123 37 24 69 43 72 43 3 0 36 20 75 45 39 25 72 45 75 45 3 0 36 20 75 45 39 25 72 45 75 45 3 0 36 20 75 45 39 25 74 45 78 46 4 0 36 20 72 43 l65 43 82 -75 c46 -41 83 -78 83 -83 0 -4 -208 -133 -463 -285 -254 -152 -463 -278 -465 -280 -2 -1 -2 -11 0 -22 2 -16 78 26 482 269 l480 288 25 -21 c14 -11 58 -48 96 -83 188 -169 341 -299 501 -427 22 -18 58 -47 80 -65 269 -218 600 -456 899 -648 28 -18 89 -58 137 -89 48 -31 90 -56 93 -56 2 0 53 -29 112 -64 240 -142 482 -265 850 -432 17 -8 34 -14 38 -14 4 0 35 -13 68 -29 34 -15 73 -31 87 -35 14 -4 36 -12 50 -18 31 -13 41 -17 165 -61 91 -33 151 -52 390 -122 103 -30 346 -88 420 -100 22 -4 85 -15 140 -26 232 -44 527 -68 880 -71 261 -2 364 4 655 37 157 18 445 70 580 105 19 5 64 16 100 25 172 41 608 181 672 216 10 5 23 9 28 9 10 0 44 14 125 50 11 5 54 23 95 40 195 81 516 240 755 375 192 108 566 346 745 474 47 33 94 66 104 73 58 39 400 299 511 388 128 104 144 117 235 195 26 22 73 63 105 90 130 111 242 210 282 247 l41 40 464 -278 c254 -152 473 -284 486 -292 21 -13 22 -13 22 9 0 21 -63 61 -465 302 -256 153 -465 282 -465 286 0 3 35 42 79 85 l78 78 72 -46 c39 -25 73 -46 76 -46 3 0 36 -20 75 -45 39 -25 72 -45 75 -45 3 0 36 -20 75 -45 39 -25 72 -45 75 -45 3 0 36 -20 75 -45 39 -25 72 -45 75 -45 3 0 35 -19 72 -43 113 -72 104 -83 101 123 l-3 179 -2334 1401 -2335 1400 2 263 c2 270 -4 341 -43 467 -71 229 -281 460 -540 593 -100 52 -175 84 -242 102 -32 9 -74 21 -93 27 -122 36 -435 55 -605 37z m-692 -2124 c36 -25 68 -45 71 -45 4 0 24 -12 45 -26 87 -57 352 -150 481 -169 192 -28 420 -29 550 -4 272 52 500 144 652 261 l37 29 1333 -800 c733 -440 1339 -805 1347 -810 12 -8 10 -15 -11 -43 -33 -44 -58 -103 -58 -138 0 -33 25 -95 51 -129 10 -13 19 -27 19 -32 0 -4 -163 -105 -362 -224 -200 -120 -401 -241 -448 -270 -47 -28 -249 -150 -450 -270 -201 -119 -403 -241 -450 -270 -47 -28 -249 -150 -450 -270 -201 -120 -403 -241 -450 -270 -47 -29 -191 -115 -320 -192 -129 -77 -276 -166 -327 -196 l-91 -56 -42 20 c-50 24 -61 27 -163 42 -56 8 -98 8 -155 0 -101 -15 -112 -18 -161 -41 l-42 -21 -106 65 c-58 35 -107 64 -108 64 -1 0 -63 37 -136 81 -74 45 -147 90 -164 99 -16 10 -124 74 -239 144 -115 69 -211 126 -212 126 -2 0 -35 20 -74 45 -39 25 -72 45 -74 45 -2 0 -64 37 -137 81 -74 45 -240 145 -369 222 -129 77 -270 162 -313 188 -43 27 -79 49 -81 49 -2 0 -64 37 -137 81 -74 45 -240 145 -369 222 -129 77 -270 162 -313 188 -43 27 -79 49 -81 49 -2 0 -64 37 -137 81 -74 45 -171 104 -217 131 -54 32 -80 53 -75 61 3 7 18 27 32 46 35 47 42 141 13 197 -11 21 -30 49 -42 62 -12 13 -20 26 -17 29 5 4 2679 1611 2684 1613 1 0 31 -20 66 -45z"/>
<path d="M5845 7804 c-111 -15 -258 -56 -345 -97 -261 -120 -376 -321 -291 -511 159 -353 867 -481 1341 -241 65 33 81 45 165 130 81 82 105 136 105 235 0 103 -24 153 -116 247 -66 66 -99 91 -170 126 -49 24 -127 53 -174 66 -47 12 -101 27 -120 32 -37 11 -343 20 -395 13z"/>
</g>
<g id="layer103" fill="#9b7653" stroke="none">
<path d="M5770 10948 c-141 -24 -294 -63 -342 -89 -10 -5 -22 -9 -28 -9 -6 0 -51 -20 -100 -44 -241 -118 -431 -297 -534 -502 -37 -76 -76 -203 -76 -252 0 -17 -4 -34 -10 -37 -33 -21 10 -259 74 -407 l34 -79 -54 -34 c-30 -19 -57 -35 -59 -35 -3 0 -36 -20 -75 -45 -39 -25 -72 -45 -75 -45 -3 0 -36 -20 -75 -45 -39 -25 -72 -45 -75 -45 -3 0 -36 -20 -75 -45 -39 -25 -72 -45 -75 -45 -3 0 -36 -20 -75 -45 -39 -25 -72 -45 -75 -45 -3 0 -36 -20 -75 -45 -39 -25 -72 -45 -75 -45 -3 0 -36 -20 -75 -45 -39 -25 -72 -45 -75 -45 -3 0 -36 -20 -75 -45 -39 -25 -72 -45 -75 -45 -3 0 -36 -20 -75 -45 -39 -25 -72 -45 -75 -45 -3 0 -36 -20 -75 -45 -39 -25 -72 -45 -75 -45 -3 0 -36 -20 -75 -45 -39 -25 -72 -45 -75 -45 -3 0 -36 -20 -75 -45 -39 -25 -72 -45 -75 -45 -3 0 -36 -20 -75 -45 -39 -25 -72 -45 -75 -45 -3 0 -36 -20 -75 -45 -39 -25 -72 -45 -75 -45 -3 0 -36 -20 -75 -45 -39 -25 -72 -45 -75 -45 -3 0 -36 -20 -75 -45 -39 -25 -72 -45 -75 -45 -3 0 -36 -20 -75 -45 -39 -25 -72 -45 -75 -45 -3 0 -36 -20 -75 -45 -39 -25 -72 -45 -75 -45 -3 0 -36 -20 -75 -45 -39 -25 -72 -45 -75 -45 -3 0 -36 -20 -75 -45 -39 -25 -72 -45 -75 -45 -3 0 -36 -20 -75 -45 -39 -25 -72 -45 -75 -45 -3 0 -36 -20 -75 -45 -39 -25 -72 -45 -75 -45 -3 0 -36 -20 -75 -45 -39 -25 -72 -45 -75 -45 -3 0 -36 -20 -75 -45 -39 -25 -72 -45 -75 -45 -3 0 -36 -20 -75 -45 -39 -25 -72 -45 -75 -45 -3 0 -36 -20 -75 -45 -39 -25 -72 -45 -75 -45 -12 0 -145 -91 -145 -99 0 -4 36 -40 80 -80 l81 -71 -44 -27 c-24 -16 -235 -143 -470 -283 -353 -211 -426 -259 -427 -277 l0 -22 38 22 c20 12 239 143 485 291 l447 268 104 -93 c133 -121 413 -360 551 -471 121 -97 414 -321 501 -382 280 -198 452 -311 699 -459 217 -129 253 -149 535 -290 272 -137 438 -210 673 -298 148 -55 187 -69 342 -119 315 -101 733 -189 1050 -220 55 -6 141 -15 192 -20 119 -13 647 -13 766 0 51 5 137 14 192 20 446 45 919 161 1420 349 61 23 119 45 130 51 11 5 81 34 155 66 277 116 722 352 1035 547 512 319 1118 781 1605 1222 30 28 67 61 82 74 l26 23 464 -278 c255 -152 473 -284 486 -292 21 -13 22 -13 22 9 0 21 -58 59 -427 279 -234 140 -447 268 -472 284 l-45 28 84 78 85 77 -73 47 c-40 25 -74 46 -77 46 -3 0 -36 20 -75 45 -39 25 -72 45 -75 45 -3 0 -36 20 -75 45 -39 25 -72 45 -75 45 -3 0 -36 20 -75 45 -39 25 -72 45 -75 45 -3 0 -36 20 -75 45 -39 25 -72 45 -75 45 -3 0 -36 20 -75 45 -39 25 -72 45 -75 45 -3 0 -36 20 -75 45 -39 25 -72 45 -75 45 -3 0 -36 20 -75 45 -39 25 -72 45 -75 45 -3 0 -36 20 -75 45 -39 25 -72 45 -75 45 -3 0 -36 20 -75 45 -39 25 -72 45 -75 45 -3 0 -36 20 -75 45 -39 25 -72 45 -75 45 -3 0 -36 20 -75 45 -39 25 -72 45 -75 45 -3 0 -36 20 -75 45 -39 25 -72 45 -75 45 -3 0 -36 20 -75 45 -39 25 -72 45 -75 45 -3 0 -36 20 -75 45 -39 25 -72 45 -75 45 -3 0 -36 20 -75 45 -39 25 -72 45 -75 45 -3 0 -36 20 -75 45 -39 25 -72 45 -75 45 -3 0 -36 20 -75 45 -39 25 -72 45 -75 45 -3 0 -36 20 -75 45 -39 25 -72 45 -75 45 -3 0 -36 20 -75 45 -39 25 -72 45 -75 45 -3 0 -36 20 -75 45 -39 25 -72 45 -75 45 -3 0 -36 20 -75 45 -39 25 -72 45 -75 45 -3 0 -36 20 -75 45 -39 25 -72 45 -75 45 -3 0 -36 20 -75 45 -39 25 -72 45 -75 45 -3 0 -36 20 -75 45 -39 25 -72 45 -75 45 -3 0 -36 20 -75 45 -39 25 -72 45 -75 45 -2 0 -29 16 -60 35 -54 35 -55 36 -41 63 40 79 65 154 91 263 16 71 20 185 6 193 -4 3 -11 31 -15 63 -24 216 -201 473 -433 629 -80 54 -251 144 -273 144 -6 0 -18 4 -28 9 -50 27 -204 66 -353 90 -79 13 -371 12 -449 -1z m-671 -1748 c68 -55 243 -146 354 -184 160 -55 394 -96 547 -96 72 0 273 22 335 37 17 4 35 8 40 9 58 6 236 71 342 124 114 58 123 64 181 109 36 28 47 32 65 23 12 -5 621 -369 1353 -808 l1330 -799 -35 -50 c-34 -46 -36 -54 -36 -125 0 -70 3 -79 33 -120 17 -24 29 -47 25 -50 -5 -4 -760 -457 -1680 -1009 l-1672 -1002 -43 20 c-82 36 -132 46 -238 46 -106 0 -156 -10 -238 -46 l-43 -20 -1678 1007 -1679 1007 33 43 c59 77 58 172 -2 251 -19 25 -31 49 -26 53 14 14 2677 1610 2686 1610 4 0 25 -14 46 -30z"/>
<path d="M5910 7804 c-14 -2 -65 -9 -115 -15 -147 -18 -337 -90 -430 -163 -119 -93 -167 -173 -173 -288 -6 -118 14 -164 113 -263 139 -140 304 -206 589 -236 166 -18 375 8 536 66 175 62 298 161 364 292 38 76 37 172 -3 251 -98 194 -320 313 -656 352 -87 10 -173 11 -225 4z"/>
</g>
<g id="layer104" fill="#a7cbb0" stroke="none">
<path d="M5670 9923 l0 -128 -2835 -1700 c-2389 -1433 -2835 -1703 -2835 -1722 0 -19 432 237 2832 1677 l2833 1700 93 0 c75 0 92 3 92 15 0 12 -15 15 -75 15 l-75 0 0 120 0 120 75 0 c60 0 75 3 75 15 0 12 -17 15 -90 15 l-90 0 0 -127z"/>
<path d="M6150 10035 c0 -12 15 -15 75 -15 l75 0 0 -120 0 -120 -75 0 c-60 0 -75 -3 -75 -15 0 -12 17 -15 93 -15 l92 0 2833 -1700 c2403 -1441 2832 -1696 2832 -1677 0 19 -443 288 -2835 1722 l-2835 1700 0 128 0 127 -90 0 c-73 0 -90 -3 -90 -15z"/>
</g>
<g id="layer105" fill="#d9ccbf" stroke="none">
<path d="M5670 9923 l0 -128 -2338 -1403 c-2565 -1539 -2980 -1788 -3002 -1802 -8 -5 -84 -50 -169 -101 -141 -86 -173 -111 -158 -126 3 -3 1279 758 2834 1691 l2829 1696 92 0 c75 0 92 3 92 15 0 12 -15 15 -75 15 l-75 0 0 120 0 120 75 0 c60 0 75 3 75 15 0 12 -17 15 -90 15 l-90 0 0 -127z"/>
<path d="M6150 10035 c0 -12 15 -15 75 -15 l75 0 0 -120 0 -120 -75 0 c-58 0 -75 -3 -75 -14 0 -12 21 -15 98 -18 l97 -3 2823 -1694 c1552 -931 2826 -1691 2829 -1687 10 9 -9 37 -32 50 -11 6 -37 22 -60 36 -22 13 -49 30 -61 36 -11 6 -53 31 -93 55 -39 24 -80 49 -89 54 -10 6 -76 45 -147 88 -72 43 -139 83 -150 90 -11 7 -39 24 -63 40 -24 15 -45 27 -49 27 -3 0 -25 14 -50 30 -24 17 -46 30 -48 30 -2 0 -75 44 -163 98 -87 53 -1172 705 -2410 1447 l-2252 1350 0 128 0 127 -90 0 c-73 0 -90 -3 -90 -15z"/>
<path d="M5938 9952 c-53 -34 -58 -40 -58 -74 l0 -38 120 0 120 0 0 39 c0 36 -3 40 -59 75 -32 20 -61 36 -63 36 -1 0 -29 -17 -60 -38z"/>
<path d="M1973 7409 c-37 -24 -36 -29 10 -57 l34 -19 42 25 42 25 -38 23 c-47 29 -50 29 -90 3z"/>
<path d="M9937 7406 l-39 -24 39 -21 c51 -29 45 -29 93 -2 l42 23 -39 24 c-21 13 -42 23 -48 23 -5 0 -27 -10 -48 -23z"/>
<path d="M5800 7236 c0 -3 9 -21 21 -40 l21 -36 158 0 158 0 21 36 c12 19 21 37 21 40 0 2 -90 4 -200 4 -110 0 -200 -2 -200 -4z"/>
<path d="M5959 4992 c-36 -23 -36 -31 2 -54 35 -21 60 -19 98 10 l23 19 -34 21 c-41 26 -54 26 -89 4z"/>
</g>
<g id="layer106" fill="#fbfaf9" stroke="none">
<path d="M5670 9920 c0 -115 -2 -131 -17 -137 -10 -4 -37 -20 -59 -35 -23 -15 -44 -28 -47 -28 -4 0 -26 -13 -50 -30 -25 -16 -47 -30 -50 -30 -4 0 -26 -13 -50 -30 -25 -16 -47 -30 -50 -30 -4 0 -26 -13 -50 -30 -25 -16 -47 -30 -50 -30 -4 0 -26 -13 -50 -30 -25 -16 -47 -30 -50 -30 -4 0 -26 -13 -50 -30 -25 -16 -47 -30 -50 -30 -4 0 -26 -13 -50 -30 -25 -16 -47 -30 -50 -30 -4 0 -26 -13 -50 -30 -25 -16 -47 -30 -50 -30 -4 0 -26 -13 -50 -30 -25 -16 -47 -30 -50 -30 -4 0 -26 -13 -50 -30 -25 -16 -47 -30 -50 -30 -4 0 -26 -13 -50 -30 -25 -16 -47 -30 -50 -30 -4 0 -26 -13 -50 -30 -25 -16 -47 -30 -50 -30 -4 0 -26 -13 -50 -30 -25 -16 -47 -30 -50 -30 -4 0 -26 -13 -50 -30 -25 -16 -47 -30 -50 -30 -4 0 -26 -13 -50 -30 -25 -16 -47 -30 -50 -30 -4 0 -26 -13 -50 -30 -25 -16 -47 -30 -50 -30 -4 0 -26 -13 -50 -30 -25 -16 -47 -30 -50 -30 -4 0 -26 -13 -50 -30 -25 -16 -47 -30 -50 -30 -4 0 -26 -13 -50 -30 -25 -16 -47 -30 -50 -30 -4 0 -26 -13 -50 -30 -25 -16 -47 -30 -50 -30 -4 0 -26 -13 -50 -30 -25 -16 -47 -30 -50 -30 -4 0 -26 -13 -50 -30 -25 -16 -47 -30 -50 -30 -4 0 -26 -13 -50 -30 -25 -16 -47 -30 -50 -30 -4 0 -26 -13 -50 -30 -25 -16 -47 -30 -50 -30 -4 0 -26 -13 -50 -30 -25 -16 -47 -30 -50 -30 -4 0 -26 -13 -50 -30 -25 -16 -47 -30 -50 -30 -4 0 -26 -13 -50 -30 -25 -16 -47 -30 -50 -30 -4 0 -26 -13 -50 -30 -25 -16 -47 -30 -50 -30 -4 0 -26 -13 -50 -30 -25 -16 -47 -30 -50 -30 -4 0 -26 -13 -50 -30 -25 -16 -47 -30 -50 -30 -4 0 -26 -13 -50 -30 -25 -16 -47 -30 -50 -30 -4 0 -26 -13 -50 -30 -25 -16 -47 -30 -50 -30 -4 0 -26 -13 -50 -30 -25 -16 -47 -30 -50 -30 -4 0 -26 -13 -50 -30 -25 -16 -47 -30 -50 -30 -4 0 -26 -13 -50 -30 -25 -16 -47 -30 -50 -30 -4 0 -26 -13 -50 -30 -25 -16 -47 -30 -50 -30 -4 0 -26 -13 -50 -30 -25 -16 -47 -30 -50 -30 -4 0 -26 -13 -50 -30 -25 -16 -47 -30 -50 -30 -4 0 -26 -13 -50 -30 -25 -16 -47 -30 -50 -30 -4 0 -26 -13 -50 -30 -25 -16 -47 -30 -50 -30 -4 0 -26 -13 -50 -30 -25 -16 -47 -30 -50 -30 -4 0 -26 -13 -50 -30 -25 -16 -47 -30 -50 -30 -4 0 -26 -13 -50 -30 -25 -16 -47 -30 -50 -30 -4 0 -26 -13 -50 -30 -25 -16 -47 -30 -50 -30 -4 0 -26 -13 -50 -30 -25 -16 -47 -30 -50 -30 -4 0 -25 -12 -49 -27 -24 -16 -52 -33 -63 -40 -11 -6 -162 -97 -335 -201 -173 -104 -329 -198 -347 -208 -184 -108 -346 -210 -350 -221 -3 -8 -3 -16 0 -19 3 -3 1277 757 2832 1690 l2827 1696 94 0 c77 0 94 3 94 15 0 12 -15 15 -75 15 l-75 0 0 120 0 120 75 0 c60 0 75 3 75 15 0 12 -17 15 -90 15 l-90 0 0 -130z"/>
<path d="M6150 10035 c0 -12 15 -15 75 -15 l75 0 0 -120 0 -120 -75 0 c-60 0 -75 -3 -75 -15 0 -12 17 -15 94 -15 l95 0 2826 -1696 c1554 -933 2829 -1693 2833 -1690 9 9 -10 37 -33 50 -11 6 -37 22 -60 36 -22 13 -49 30 -61 36 -11 6 -53 31 -93 55 -39 24 -80 49 -89 54 -10 6 -76 45 -147 88 -72 43 -139 83 -150 90 -11 7 -39 24 -63 40 -24 15 -45 27 -48 27 -2 0 -23 12 -47 27 -23 15 -51 33 -63 39 -24 13 -155 92 -192 116 -15 10 -36 22 -47 28 -21 11 -34 18 -103 63 -24 15 -45 27 -49 27 -3 0 -24 13 -47 28 -22 15 -48 31 -56 35 -8 4 -28 16 -45 27 -16 11 -39 24 -50 29 -11 5 -37 21 -58 35 -21 14 -40 26 -43 26 -4 0 -25 13 -48 28 -22 15 -48 31 -56 35 -8 4 -28 16 -45 27 -16 11 -39 24 -50 29 -11 5 -37 21 -58 35 -21 14 -40 26 -43 26 -4 0 -26 14 -51 30 -24 17 -46 30 -50 30 -3 0 -25 14 -50 30 -24 17 -46 30 -50 30 -3 0 -25 14 -50 30 -24 17 -46 30 -50 30 -3 0 -25 14 -50 30 -24 17 -46 30 -50 30 -3 0 -25 14 -50 30 -24 17 -46 30 -50 30 -3 0 -25 14 -50 30 -24 17 -46 30 -50 30 -3 0 -25 14 -50 30 -24 17 -46 30 -50 30 -3 0 -25 14 -50 30 -24 17 -46 30 -50 30 -3 0 -25 14 -50 30 -24 17 -46 30 -50 30 -3 0 -25 14 -50 30 -24 17 -46 30 -50 30 -3 0 -25 14 -50 30 -24 17 -46 30 -50 30 -3 0 -25 14 -50 30 -24 17 -46 30 -50 30 -3 0 -25 14 -50 30 -24 17 -46 30 -50 30 -3 0 -25 14 -50 30 -24 17 -46 30 -50 30 -3 0 -25 14 -50 30 -24 17 -46 30 -50 30 -3 0 -25 14 -50 30 -24 17 -46 30 -50 30 -3 0 -25 14 -50 30 -24 17 -46 30 -50 30 -3 0 -25 14 -50 30 -24 17 -46 30 -50 30 -3 0 -25 14 -50 30 -24 17 -46 30 -50 30 -3 0 -25 14 -50 30 -24 17 -46 30 -50 30 -3 0 -25 14 -50 30 -24 17 -46 30 -50 30 -3 0 -25 14 -50 30 -24 17 -46 30 -50 30 -3 0 -25 14 -50 30 -24 17 -46 30 -50 30 -3 0 -25 14 -50 30 -24 17 -46 30 -50 30 -3 0 -25 14 -50 30 -24 17 -46 30 -50 30 -3 0 -25 14 -50 30 -24 17 -46 30 -50 30 -3 0 -25 14 -50 30 -24 17 -46 30 -50 30 -3 0 -25 14 -50 30 -24 17 -46 30 -50 30 -3 0 -25 14 -50 30 -24 17 -46 30 -50 30 -3 0 -25 14 -50 30 -24 17 -46 30 -50 30 -3 0 -25 14 -50 30 -24 17 -46 30 -50 30 -3 0 -25 14 -50 30 -24 17 -46 30 -50 30 -3 0 -25 14 -50 30 -24 17 -46 30 -50 30 -3 0 -25 14 -50 30 -24 17 -46 30 -50 30 -3 0 -25 14 -50 30 -24 17 -46 30 -50 30 -3 0 -25 14 -50 30 -24 17 -46 30 -50 30 -3 0 -25 14 -50 30 -24 17 -46 30 -50 30 -3 0 -24 13 -47 28 -22 15 -49 31 -58 35 -16 6 -18 22 -18 137 l0 130 -90 0 c-73 0 -90 -3 -90 -15z"/>
<path d="M5928 9946 c-42 -27 -47 -35 -47 -68 l-1 -38 120 0 120 0 0 40 c0 36 -4 41 -39 60 -22 11 -42 24 -46 30 -12 19 -60 8 -107 -24z"/>
<path d="M1983 7412 c-39 -21 -39 -31 0 -58 31 -21 31 -21 64 -1 47 27 47 32 7 56 -19 12 -36 21 -37 21 -1 -1 -16 -9 -34 -18z"/>
<path d="M9942 7408 c-37 -23 -32 -37 18 -58 25 -11 34 -9 65 10 19 12 35 23 35 26 0 4 -77 45 -82 43 -2 0 -18 -10 -36 -21z"/>
<path d="M5800 7234 c0 -3 9 -19 21 -35 l20 -29 159 0 159 0 20 29 c12 16 21 32 21 35 0 3 -90 6 -200 6 -110 0 -200 -3 -200 -6z"/>
<path d="M5957 4987 l-38 -23 40 -22 c40 -23 54 -22 98 7 l21 15 -21 16 c-38 30 -60 31 -100 7z"/>
</g>


</svg>